<svg version="1.1" id="Layer_1" xmlns="http://www.w3.org/2000/svg" xmlns:xlink="http://www.w3.org/1999/xlink" x="0px" y="0px"
	 width="50px" height="50px" viewBox="0 0 600 600" enable-background="new 0 0 600 600" xml:space="preserve">
	<g>
		<path fill="none" stroke="#020405" stroke-width="4" d="M596.145,513.895c0,45.977-37.271,83.249-83.248,83.249H86.248
			C40.272,597.144,3,559.871,3,513.895V87.247C3,41.271,40.272,4,86.248,4h426.648c45.977,0,83.248,37.271,83.248,83.247V513.895
			L596.145,513.895z"/>
		<polygon fill="#020405" stroke="#020405" stroke-width="0.5" points="215.572,507.567 91.572,595.567 128.572,595.567 
			157.392,576.496 446.016,576.418 477.055,596.781 512.59,596.788 381.572,507.567 348.459,507.568 368.793,522.568 
			232.132,522.514 252.572,507.567 215.572,507.567 	"/>
		<polygon fill="#FFFFFF" stroke="#020405" stroke-width="0.5" points="208.285,539.157 184.686,556.297 417.791,556.234 
			391.459,539.234 208.285,539.157 	"/>
		<path fill="#020405" stroke="#020405" stroke-width="0.5" d="M334.072,59.067c0,19.054-15.445,34.5-34.5,34.5
			c-19.053,0-34.5-15.446-34.5-34.5c0-19.055,15.446-34.5,34.5-34.5C318.627,24.567,334.072,40.013,334.072,59.067L334.072,59.067z"
			/>
		<path fill="#020405" stroke="#020405" stroke-width="0.5" d="M126.572,175.567c0-39.212,31.788-71,71-71h204
			c39.213,0,71,31.788,71,71v251c0,39.213-31.787,71-71,71h-204c-39.212,0-71-31.787-71-71V175.567L126.572,175.567z"/>
		<path fill="#FFFFFF" stroke="#020405" stroke-width="0.5" d="M383.072,142.567c0,8.285-6.715,15-15,15h-137
			c-8.284,0-15-6.715-15-15v-3.999c0-8.285,6.716-15,15-15h137c8.285,0,15,6.715,15,15V142.567L383.072,142.567z"/>
		<path fill="#FFFFFF" stroke="#020405" stroke-width="0.5" d="M214.572,389.067c0,16.292-13.208,29.5-29.5,29.5
			s-29.5-13.208-29.5-29.5s13.208-29.5,29.5-29.5S214.572,372.775,214.572,389.067L214.572,389.067z"/>
		<path fill="#FFFFFF" stroke="#020405" stroke-width="0.5" d="M443.572,389.067c0,16.292-13.207,29.5-29.5,29.5
			s-29.5-13.208-29.5-29.5s13.207-29.5,29.5-29.5S443.572,372.775,443.572,389.067L443.572,389.067z"/>
		<path fill="#FFFFFF" stroke="#020405" stroke-width="0.5" d="M290.581,262.576c0,14.635-11.863,26.5-26.5,26.5h-85.507
			c-14.637,0-26.5-11.865-26.5-26.5v-62c0-14.636,11.863-26.5,26.5-26.5h85.507c14.637,0,26.5,11.863,26.5,26.5V262.576
			L290.581,262.576z"/>
		<path fill="#FFFFFF" stroke="#020405" stroke-width="0.5" d="M445.055,261.583c0,14.635-11.863,26.5-26.5,26.5h-85.506
			c-14.637,0-26.5-11.865-26.5-26.5v-62c0-14.636,11.863-26.5,26.5-26.5h85.506c14.637,0,26.5,11.864,26.5,26.5V261.583
			L445.055,261.583z"/>
	</g>
</svg>
